<svg xmlns="http://www.w3.org/2000/svg" xmlns:xlink="http://www.w3.org/1999/xlink" width="500" zoomAndPan="magnify" viewBox="0 0 375 149.999998" height="200" preserveAspectRatio="xMidYMid meet" version="1.0"><defs><g/></defs><g fill="#ffffff" fill-opacity="1"><g transform="translate(59.537128, 79.965828)"><g><path d="M 17.519531 -50.679688 C 17.355469 -50.792969 17.171875 -50.859375 16.976562 -50.875 C 16.777344 -50.894531 16.578125 -50.84375 16.398438 -50.761719 C 16.234375 -50.664062 16.101562 -50.5625 16.003906 -50.429688 C 15.917969 -50.316406 15.855469 -50.199219 15.804688 -50.085938 C 15.789062 -50.019531 15.769531 -49.96875 15.753906 -49.921875 C 15.753906 -49.886719 15.738281 -49.835938 15.738281 -49.789062 L 15.738281 -49.753906 C 15.722656 -49.671875 15.722656 -49.539062 15.738281 -49.390625 C 15.753906 -49.210938 15.820312 -49.0625 15.917969 -48.914062 C 16.050781 -48.714844 16.25 -48.566406 16.480469 -48.484375 C 16.597656 -48.453125 16.710938 -48.433594 16.808594 -48.433594 C 16.976562 -48.433594 17.109375 -48.46875 17.257812 -48.535156 C 17.46875 -48.617188 17.636719 -48.765625 17.765625 -48.980469 C 17.832031 -49.078125 17.867188 -49.175781 17.898438 -49.277344 C 17.914062 -49.308594 17.914062 -49.34375 17.933594 -49.375 C 17.964844 -49.507812 17.980469 -49.707031 17.964844 -49.9375 C 17.914062 -50.25 17.765625 -50.496094 17.519531 -50.679688 Z M 14.367188 -50.695312 C 14.1875 -50.828125 14.007812 -50.894531 13.808594 -50.894531 C 13.609375 -50.910156 13.410156 -50.875 13.230469 -50.777344 C 13.066406 -50.695312 12.933594 -50.578125 12.835938 -50.464844 C 12.753906 -50.332031 12.6875 -50.21875 12.636719 -50.117188 C 12.621094 -50.050781 12.605469 -50.003906 12.585938 -49.953125 C 12.585938 -49.902344 12.570312 -49.871094 12.570312 -49.820312 L 12.570312 -49.789062 C 12.554688 -49.6875 12.554688 -49.574219 12.570312 -49.425781 C 12.585938 -49.242188 12.652344 -49.078125 12.753906 -48.945312 C 12.882812 -48.730469 13.082031 -48.601562 13.3125 -48.519531 C 13.429688 -48.484375 13.542969 -48.46875 13.660156 -48.46875 C 13.808594 -48.46875 13.941406 -48.5 14.089844 -48.550781 C 14.304688 -48.648438 14.46875 -48.796875 14.601562 -48.996094 C 14.664062 -49.113281 14.699219 -49.210938 14.730469 -49.308594 C 14.75 -49.34375 14.75 -49.359375 14.765625 -49.390625 C 14.796875 -49.539062 14.8125 -49.722656 14.796875 -49.96875 C 14.75 -50.265625 14.601562 -50.515625 14.367188 -50.695312 Z M 17.238281 -46.902344 C 14.863281 -47.941406 12.621094 -47.117188 12.339844 -47.015625 C 12.140625 -46.949219 10.492188 -46.4375 8.496094 -44.707031 C 6.566406 -43.058594 3.910156 -39.90625 2.175781 -34.347656 C 0.757812 -29.910156 0.246094 -25.882812 0.675781 -22.386719 C 0.890625 -20.554688 1.371094 -18.921875 2.078125 -17.554688 C 2.078125 -17.320312 2.09375 -17.109375 2.09375 -16.894531 C 2.195312 -12.554688 2.871094 -4.867188 6.433594 -1.964844 C 7.339844 -1.222656 8.363281 -0.859375 9.46875 -0.859375 C 10.691406 -0.859375 12.042969 -1.304688 13.496094 -2.195312 C 20.570312 -6.550781 22.667969 -15.835938 23.195312 -22.847656 C 23.804688 -31.082031 22.4375 -39.097656 21.265625 -42.167969 C 20.375 -44.542969 19.003906 -46.140625 17.238281 -46.902344 Z M 6.976562 -2.640625 C 4.683594 -4.519531 3.234375 -9.417969 2.984375 -16.117188 C 3.300781 -15.6875 3.644531 -15.308594 4.023438 -14.960938 C 6.300781 -12.835938 9.4375 -12.355469 12.605469 -13.660156 C 12.703125 -13.691406 12.785156 -13.773438 12.835938 -13.890625 C 12.882812 -13.988281 12.882812 -14.105469 12.835938 -14.21875 C 12.785156 -14.335938 12.703125 -14.417969 12.605469 -14.453125 C 12.488281 -14.5 12.371094 -14.5 12.273438 -14.453125 C 9.4375 -13.296875 6.632812 -13.710938 4.621094 -15.589844 C 3.976562 -16.183594 3.414062 -16.925781 2.953125 -17.765625 C 2.921875 -23.921875 3.84375 -30.339844 5.378906 -34.527344 C 5.425781 -34.628906 5.410156 -34.742188 5.363281 -34.859375 C 5.3125 -34.957031 5.230469 -35.039062 5.128906 -35.074219 C 5.015625 -35.121094 4.898438 -35.121094 4.800781 -35.074219 C 4.683594 -35.023438 4.601562 -34.925781 4.570312 -34.824219 C 3.167969 -31.015625 2.261719 -25.4375 2.113281 -19.78125 C 1.847656 -20.621094 1.648438 -21.527344 1.535156 -22.484375 C 1.121094 -25.816406 1.632812 -29.828125 3.019531 -34.082031 C 4.667969 -39.429688 7.191406 -42.445312 9.023438 -44.015625 C 10.988281 -45.714844 12.585938 -46.175781 12.605469 -46.175781 L 12.652344 -46.191406 C 12.667969 -46.207031 14.78125 -47.03125 16.894531 -46.109375 C 18.445312 -45.433594 19.648438 -43.996094 20.457031 -41.851562 C 22.929688 -35.371094 25.4375 -10.574219 13.03125 -2.9375 C 10.609375 -1.433594 8.578125 -1.335938 6.976562 -2.640625 Z M 6.976562 -2.640625 "/></g></g></g><g fill="#ffffff" fill-opacity="1"><g transform="translate(83.515853, 79.965828)"><g><path d="M 11.21875 -2.375 C 11.25 -2.375 11.285156 -2.375 11.316406 -2.375 C 12.421875 -2.492188 13.625 -4.71875 15.917969 -10.855469 C 16.003906 -11.085938 15.886719 -11.351562 15.65625 -11.433594 C 15.425781 -11.515625 15.160156 -11.398438 15.078125 -11.167969 C 14.417969 -9.386719 13.644531 -7.359375 12.902344 -5.773438 C 11.796875 -3.449219 11.300781 -3.28125 11.234375 -3.265625 C 11.21875 -3.28125 11.183594 -3.316406 11.136719 -3.382812 C 10.195312 -4.898438 10.292969 -12.40625 11.019531 -18.128906 C 11.21875 -19.664062 10.722656 -20.078125 10.261719 -20.160156 C 9.289062 -20.308594 8.167969 -18.707031 7.589844 -17.734375 C 6.617188 -16.066406 5.824219 -13.972656 5.378906 -11.8125 C 5.394531 -11.878906 5.394531 -11.945312 5.394531 -12.011719 C 5.410156 -12.175781 5.410156 -12.371094 5.425781 -12.585938 C 5.609375 -15.109375 5.609375 -16.234375 4.898438 -16.414062 C 4.355469 -16.5625 3.875 -16.019531 3.101562 -14.386719 C 1.996094 -12.074219 1.5 -9.78125 1.15625 -8.28125 C 1.121094 -8.117188 1.089844 -7.953125 1.054688 -7.785156 C 0.808594 -9.121094 0.644531 -10.277344 0.527344 -11.285156 C 1.417969 -15.160156 1.535156 -17.453125 0.859375 -18.113281 C 0.691406 -18.277344 0.476562 -18.34375 0.28125 -18.296875 L 0.246094 -18.296875 L 0.214844 -18.277344 C -0.015625 -18.179688 -0.609375 -17.914062 -0.578125 -14.699219 C -0.578125 -13.890625 -0.527344 -12.769531 -0.363281 -11.332031 C -0.378906 -11.265625 -0.394531 -11.183594 -0.414062 -11.117188 C -0.460938 -10.953125 -0.394531 -10.789062 -0.296875 -10.691406 C -0.148438 -9.550781 0.0507812 -8.214844 0.347656 -6.714844 L 0.363281 -6.664062 L 0.378906 -6.617188 C 0.445312 -6.46875 0.660156 -6.019531 1.089844 -6.054688 C 1.601562 -6.121094 1.714844 -6.648438 2.027344 -8.082031 C 2.359375 -9.550781 2.855469 -11.796875 3.910156 -14.007812 C 4.222656 -14.699219 4.453125 -15.078125 4.601562 -15.292969 C 4.683594 -14.632812 4.585938 -13.347656 4.535156 -12.652344 C 4.535156 -12.4375 4.519531 -12.242188 4.503906 -12.058594 C 4.453125 -11.136719 4.4375 -10.441406 4.46875 -9.964844 C 4.488281 -9.601562 4.519531 -8.972656 5.015625 -8.910156 C 5.511719 -8.859375 5.691406 -9.453125 5.824219 -9.832031 C 5.957031 -10.261719 6.105469 -10.820312 6.234375 -11.5 C 6.78125 -14.304688 7.769531 -16.28125 8.316406 -17.207031 C 9.1875 -18.691406 9.882812 -19.234375 10.097656 -19.269531 C 10.128906 -19.203125 10.226562 -18.9375 10.128906 -18.230469 C 9.503906 -13.230469 9.140625 -4.898438 10.375 -2.921875 C 10.65625 -2.457031 11.003906 -2.375 11.21875 -2.375 Z M 0.394531 -16.644531 C 0.414062 -16.265625 0.394531 -15.722656 0.296875 -14.945312 C 0.296875 -15.707031 0.347656 -16.25 0.394531 -16.644531 Z M 0.394531 -16.644531 "/></g></g></g><g fill="#ffffff" fill-opacity="1"><g transform="translate(98.96845, 79.965828)"><g><path d="M 5.148438 -21.792969 C 5.03125 -21.875 4.917969 -21.925781 4.785156 -21.925781 C 4.636719 -21.941406 4.519531 -21.90625 4.386719 -21.859375 C 4.289062 -21.792969 4.191406 -21.726562 4.140625 -21.644531 C 4.074219 -21.5625 4.023438 -21.480469 4.007812 -21.414062 C 3.992188 -21.363281 3.976562 -21.332031 3.976562 -21.296875 C 3.960938 -21.265625 3.960938 -21.25 3.960938 -21.214844 L 3.960938 -21.199219 C 3.941406 -21.132812 3.941406 -21.050781 3.960938 -20.953125 C 3.976562 -20.835938 4.007812 -20.71875 4.074219 -20.636719 C 4.171875 -20.488281 4.289062 -20.40625 4.453125 -20.339844 C 4.519531 -20.324219 4.601562 -20.308594 4.667969 -20.308594 C 4.769531 -20.308594 4.867188 -20.339844 4.964844 -20.375 C 5.113281 -20.441406 5.214844 -20.539062 5.3125 -20.671875 C 5.34375 -20.738281 5.378906 -20.804688 5.394531 -20.867188 C 5.394531 -20.886719 5.410156 -20.917969 5.410156 -20.933594 C 5.445312 -21.035156 5.445312 -21.148438 5.425781 -21.3125 C 5.394531 -21.511719 5.3125 -21.675781 5.148438 -21.792969 Z M 3.035156 -21.808594 C 2.9375 -21.890625 2.804688 -21.941406 2.671875 -21.941406 C 2.539062 -21.957031 2.410156 -21.925781 2.292969 -21.875 C 2.175781 -21.808594 2.09375 -21.742188 2.027344 -21.660156 C 1.964844 -21.578125 1.929688 -21.496094 1.898438 -21.429688 C 1.878906 -21.378906 1.878906 -21.347656 1.863281 -21.3125 C 1.863281 -21.28125 1.847656 -21.265625 1.847656 -21.230469 L 1.847656 -21.214844 C 1.832031 -21.148438 1.832031 -21.066406 1.847656 -20.96875 C 1.863281 -20.851562 1.914062 -20.738281 1.964844 -20.652344 C 2.0625 -20.503906 2.195312 -20.421875 2.34375 -20.355469 C 2.425781 -20.339844 2.492188 -20.324219 2.574219 -20.324219 C 2.671875 -20.324219 2.773438 -20.355469 2.855469 -20.390625 C 3.003906 -20.457031 3.117188 -20.554688 3.199219 -20.6875 C 3.25 -20.753906 3.265625 -20.820312 3.28125 -20.886719 C 3.300781 -20.902344 3.300781 -20.933594 3.300781 -20.953125 C 3.332031 -21.050781 3.347656 -21.164062 3.332031 -21.332031 C 3.300781 -21.527344 3.199219 -21.695312 3.035156 -21.808594 Z M 2.277344 -9.304688 C 2.027344 -9.171875 1.816406 -9.171875 1.601562 -9.253906 C 0.0664062 -9.929688 0.941406 -13.132812 1.253906 -14.089844 C 1.550781 -14.75 1.667969 -15.195312 1.683594 -15.242188 C 1.75 -15.472656 1.632812 -15.707031 1.417969 -15.769531 C 1.203125 -15.855469 0.957031 -15.753906 0.875 -15.539062 C 0.839844 -15.457031 0.660156 -15.0625 0.460938 -14.46875 C 0.132812 -13.660156 -0.0976562 -12.371094 -0.132812 -11.761719 C -0.28125 -10.046875 0.179688 -8.925781 1.253906 -8.464844 C 1.699219 -8.265625 2.160156 -8.28125 2.65625 -8.511719 C 4.289062 -9.304688 5.742188 -12.636719 6.46875 -14.566406 C 6.402344 -13.230469 6.21875 -9.832031 6.203125 -8.957031 C 6.152344 -4.570312 7.523438 -3.628906 8.347656 -3.480469 C 8.445312 -3.449219 8.5625 -3.449219 8.675781 -3.449219 C 9.882812 -3.449219 11.167969 -4.734375 11.976562 -6.730469 L 12.09375 -6.996094 C 12.753906 -8.628906 13.148438 -9.617188 13.660156 -11.003906 C 13.710938 -11.117188 13.710938 -11.234375 13.660156 -11.332031 C 13.609375 -11.433594 13.511719 -11.515625 13.410156 -11.5625 C 13.296875 -11.597656 13.179688 -11.597656 13.082031 -11.546875 C 12.964844 -11.5 12.882812 -11.414062 12.851562 -11.316406 C 12.339844 -9.949219 11.945312 -8.957031 11.285156 -7.324219 L 11.167969 -7.0625 C 10.476562 -5.3125 9.355469 -4.15625 8.511719 -4.320312 C 7.605469 -4.503906 7.042969 -6.285156 7.078125 -8.957031 C 7.09375 -9.882812 7.292969 -13.773438 7.359375 -14.796875 C 7.421875 -15.820312 7.457031 -16.429688 7.472656 -16.84375 C 7.488281 -17.4375 7.507812 -17.867188 7.078125 -17.949219 C 6.617188 -18.015625 6.515625 -17.601562 6.335938 -16.910156 C 5.988281 -15.558594 4.089844 -10.179688 2.277344 -9.304688 Z M 2.277344 -9.304688 "/></g></g></g><g fill="#ffffff" fill-opacity="1"><g transform="translate(111.99678, 79.965828)"><g><path d="M -0.0507812 -10.691406 C 0.179688 -10.625 0.429688 -10.757812 0.496094 -10.96875 C 1.386719 -13.742188 1.996094 -16.066406 2.324219 -17.851562 C 3.367188 -17.191406 4.652344 -17.125 6.152344 -17.617188 C 6.617188 -17.765625 6.945312 -17.765625 7.175781 -17.601562 C 7.96875 -17.007812 7.886719 -14.171875 7.785156 -10.886719 C 7.738281 -9.253906 7.671875 -7.390625 7.703125 -5.363281 C 7.71875 -2.921875 8.230469 -1.648438 9.253906 -1.46875 C 9.320312 -1.453125 9.386719 -1.453125 9.46875 -1.453125 C 11.648438 -1.453125 14.8125 -6.976562 16.28125 -10.953125 C 16.316406 -11.070312 16.316406 -11.183594 16.265625 -11.300781 C 16.214844 -11.398438 16.132812 -11.480469 16.019531 -11.515625 C 15.789062 -11.597656 15.539062 -11.480469 15.457031 -11.265625 C 13.792969 -6.699219 10.671875 -2.113281 9.402344 -2.324219 C 9.207031 -2.359375 8.59375 -2.671875 8.5625 -5.378906 C 8.546875 -7.390625 8.59375 -9.238281 8.660156 -10.871094 C 8.777344 -14.832031 8.859375 -17.4375 7.6875 -18.3125 C 7.226562 -18.640625 6.632812 -18.691406 5.890625 -18.445312 C 4.488281 -17.980469 3.316406 -18.097656 2.472656 -18.804688 C 2.707031 -20.621094 2.539062 -21.695312 1.980469 -22.089844 C 1.683594 -22.304688 1.304688 -22.289062 0.988281 -22.054688 C 0.394531 -21.609375 0.394531 -20.40625 0.972656 -19.316406 C 1.074219 -19.121094 1.253906 -18.804688 1.550781 -18.492188 C 1.269531 -16.695312 0.644531 -14.253906 -0.328125 -11.25 C -0.394531 -11.019531 -0.28125 -10.773438 -0.0507812 -10.691406 Z M 1.5 -21.347656 C 1.566406 -21.25 1.75 -20.902344 1.683594 -19.8125 C 1.304688 -20.605469 1.386719 -21.25 1.5 -21.347656 Z M 1.5 -21.347656 "/></g></g></g><g fill="#ffffff" fill-opacity="1"><g transform="translate(127.779208, 79.965828)"><g/></g></g><g fill="#ffffff" fill-opacity="1"><g transform="translate(140.708589, 79.965828)"><g><path d="M 12.902344 -43.058594 C 10.707031 -42.828125 8.015625 -41.523438 5.511719 -39.445312 C 3.070312 -37.433594 1.171875 -34.988281 0.445312 -32.894531 C -1.566406 -27.238281 -0.609375 -21.050781 4.109375 -9.304688 C 4.503906 -8.363281 4.800781 -7.441406 5.03125 -6.582031 C 3.167969 -5.164062 1.898438 -3.8125 1.269531 -2.539062 C 0.3125 -0.757812 0.28125 0.859375 1.1875 1.765625 C 1.566406 2.144531 2.0625 2.359375 2.605469 2.359375 C 2.9375 2.359375 3.25 2.277344 3.546875 2.128906 C 3.695312 2.078125 5.015625 1.46875 5.789062 -0.347656 C 6.46875 -1.914062 6.53125 -3.894531 6.003906 -6.21875 C 9.207031 -8.5625 13.082031 -10.328125 14.847656 -10.640625 C 15.078125 -10.671875 15.242188 -10.90625 15.195312 -11.136719 C 15.160156 -11.367188 14.929688 -11.53125 14.699219 -11.5 C 12.933594 -11.183594 9.039062 -9.4375 5.773438 -7.144531 C 5.558594 -7.933594 5.261719 -8.777344 4.917969 -9.632812 C 0.296875 -21.148438 -0.660156 -27.171875 1.253906 -32.613281 C 2.753906 -36.855469 8.792969 -41.769531 12.984375 -42.183594 C 14.648438 -42.347656 15.855469 -41.820312 16.597656 -40.582031 C 16.644531 -40.484375 16.746094 -40.417969 16.859375 -40.382812 C 16.976562 -40.351562 17.089844 -40.367188 17.191406 -40.433594 C 17.289062 -40.484375 17.355469 -40.582031 17.386719 -40.699219 C 17.421875 -40.8125 17.40625 -40.929688 17.339844 -41.027344 C 16.429688 -42.546875 14.898438 -43.253906 12.902344 -43.058594 Z M 2.046875 -2.144531 C 2.558594 -3.183594 3.664062 -4.40625 5.246094 -5.640625 C 5.742188 -3.117188 5.363281 -1.519531 4.964844 -0.609375 C 4.304688 0.859375 3.21875 1.335938 3.199219 1.335938 L 3.167969 1.351562 C 2.6875 1.601562 2.160156 1.519531 1.796875 1.15625 C 1.1875 0.527344 1.269531 -0.710938 2.046875 -2.144531 Z M 2.046875 -2.144531 "/></g></g></g><g fill="#ffffff" fill-opacity="1"><g transform="translate(155.534506, 79.965828)"><g><path d="M 5.148438 -21.792969 C 5.03125 -21.875 4.917969 -21.925781 4.785156 -21.925781 C 4.636719 -21.941406 4.519531 -21.90625 4.386719 -21.859375 C 4.289062 -21.792969 4.191406 -21.726562 4.140625 -21.644531 C 4.074219 -21.5625 4.023438 -21.480469 4.007812 -21.414062 C 3.992188 -21.363281 3.976562 -21.332031 3.976562 -21.296875 C 3.960938 -21.265625 3.960938 -21.25 3.960938 -21.214844 L 3.960938 -21.199219 C 3.941406 -21.132812 3.941406 -21.050781 3.960938 -20.953125 C 3.976562 -20.835938 4.007812 -20.71875 4.074219 -20.636719 C 4.171875 -20.488281 4.289062 -20.40625 4.453125 -20.339844 C 4.519531 -20.324219 4.601562 -20.308594 4.667969 -20.308594 C 4.769531 -20.308594 4.867188 -20.339844 4.964844 -20.375 C 5.113281 -20.441406 5.214844 -20.539062 5.3125 -20.671875 C 5.34375 -20.738281 5.378906 -20.804688 5.394531 -20.867188 C 5.394531 -20.886719 5.410156 -20.917969 5.410156 -20.933594 C 5.445312 -21.035156 5.445312 -21.148438 5.425781 -21.3125 C 5.394531 -21.511719 5.3125 -21.675781 5.148438 -21.792969 Z M 3.035156 -21.808594 C 2.9375 -21.890625 2.804688 -21.941406 2.671875 -21.941406 C 2.539062 -21.957031 2.410156 -21.925781 2.292969 -21.875 C 2.175781 -21.808594 2.09375 -21.742188 2.027344 -21.660156 C 1.964844 -21.578125 1.929688 -21.496094 1.898438 -21.429688 C 1.878906 -21.378906 1.878906 -21.347656 1.863281 -21.3125 C 1.863281 -21.28125 1.847656 -21.265625 1.847656 -21.230469 L 1.847656 -21.214844 C 1.832031 -21.148438 1.832031 -21.066406 1.847656 -20.96875 C 1.863281 -20.851562 1.914062 -20.738281 1.964844 -20.652344 C 2.0625 -20.503906 2.195312 -20.421875 2.34375 -20.355469 C 2.425781 -20.339844 2.492188 -20.324219 2.574219 -20.324219 C 2.671875 -20.324219 2.773438 -20.355469 2.855469 -20.390625 C 3.003906 -20.457031 3.117188 -20.554688 3.199219 -20.6875 C 3.25 -20.753906 3.265625 -20.820312 3.28125 -20.886719 C 3.300781 -20.902344 3.300781 -20.933594 3.300781 -20.953125 C 3.332031 -21.050781 3.347656 -21.164062 3.332031 -21.332031 C 3.300781 -21.527344 3.199219 -21.695312 3.035156 -21.808594 Z M 2.277344 -9.304688 C 2.027344 -9.171875 1.816406 -9.171875 1.601562 -9.253906 C 0.0664062 -9.929688 0.941406 -13.132812 1.253906 -14.089844 C 1.550781 -14.75 1.667969 -15.195312 1.683594 -15.242188 C 1.75 -15.472656 1.632812 -15.707031 1.417969 -15.769531 C 1.203125 -15.855469 0.957031 -15.753906 0.875 -15.539062 C 0.839844 -15.457031 0.660156 -15.0625 0.460938 -14.46875 C 0.132812 -13.660156 -0.0976562 -12.371094 -0.132812 -11.761719 C -0.28125 -10.046875 0.179688 -8.925781 1.253906 -8.464844 C 1.699219 -8.265625 2.160156 -8.28125 2.65625 -8.511719 C 4.289062 -9.304688 5.742188 -12.636719 6.46875 -14.566406 C 6.402344 -13.230469 6.21875 -9.832031 6.203125 -8.957031 C 6.152344 -4.570312 7.523438 -3.628906 8.347656 -3.480469 C 8.445312 -3.449219 8.5625 -3.449219 8.675781 -3.449219 C 9.882812 -3.449219 11.167969 -4.734375 11.976562 -6.730469 L 12.09375 -6.996094 C 12.753906 -8.628906 13.148438 -9.617188 13.660156 -11.003906 C 13.710938 -11.117188 13.710938 -11.234375 13.660156 -11.332031 C 13.609375 -11.433594 13.511719 -11.515625 13.410156 -11.5625 C 13.296875 -11.597656 13.179688 -11.597656 13.082031 -11.546875 C 12.964844 -11.5 12.882812 -11.414062 12.851562 -11.316406 C 12.339844 -9.949219 11.945312 -8.957031 11.285156 -7.324219 L 11.167969 -7.0625 C 10.476562 -5.3125 9.355469 -4.15625 8.511719 -4.320312 C 7.605469 -4.503906 7.042969 -6.285156 7.078125 -8.957031 C 7.09375 -9.882812 7.292969 -13.773438 7.359375 -14.796875 C 7.421875 -15.820312 7.457031 -16.429688 7.472656 -16.84375 C 7.488281 -17.4375 7.507812 -17.867188 7.078125 -17.949219 C 6.617188 -18.015625 6.515625 -17.601562 6.335938 -16.910156 C 5.988281 -15.558594 4.089844 -10.179688 2.277344 -9.304688 Z M 2.277344 -9.304688 "/></g></g></g><g fill="#ffffff" fill-opacity="1"><g transform="translate(168.562837, 79.965828)"><g><path d="M -0.0507812 -10.691406 C 0.179688 -10.625 0.429688 -10.757812 0.496094 -10.96875 C 1.386719 -13.742188 1.996094 -16.066406 2.324219 -17.851562 C 3.367188 -17.191406 4.652344 -17.125 6.152344 -17.617188 C 6.617188 -17.765625 6.945312 -17.765625 7.175781 -17.601562 C 7.96875 -17.007812 7.886719 -14.171875 7.785156 -10.886719 C 7.738281 -9.253906 7.671875 -7.390625 7.703125 -5.363281 C 7.71875 -2.921875 8.230469 -1.648438 9.253906 -1.46875 C 9.320312 -1.453125 9.386719 -1.453125 9.46875 -1.453125 C 11.648438 -1.453125 14.8125 -6.976562 16.28125 -10.953125 C 16.316406 -11.070312 16.316406 -11.183594 16.265625 -11.300781 C 16.214844 -11.398438 16.132812 -11.480469 16.019531 -11.515625 C 15.789062 -11.597656 15.539062 -11.480469 15.457031 -11.265625 C 13.792969 -6.699219 10.671875 -2.113281 9.402344 -2.324219 C 9.207031 -2.359375 8.59375 -2.671875 8.5625 -5.378906 C 8.546875 -7.390625 8.59375 -9.238281 8.660156 -10.871094 C 8.777344 -14.832031 8.859375 -17.4375 7.6875 -18.3125 C 7.226562 -18.640625 6.632812 -18.691406 5.890625 -18.445312 C 4.488281 -17.980469 3.316406 -18.097656 2.472656 -18.804688 C 2.707031 -20.621094 2.539062 -21.695312 1.980469 -22.089844 C 1.683594 -22.304688 1.304688 -22.289062 0.988281 -22.054688 C 0.394531 -21.609375 0.394531 -20.40625 0.972656 -19.316406 C 1.074219 -19.121094 1.253906 -18.804688 1.550781 -18.492188 C 1.269531 -16.695312 0.644531 -14.253906 -0.328125 -11.25 C -0.394531 -11.019531 -0.28125 -10.773438 -0.0507812 -10.691406 Z M 1.5 -21.347656 C 1.566406 -21.25 1.75 -20.902344 1.683594 -19.8125 C 1.304688 -20.605469 1.386719 -21.25 1.5 -21.347656 Z M 1.5 -21.347656 "/></g></g></g><g fill="#ffffff" fill-opacity="1"><g transform="translate(184.345264, 79.965828)"><g><path d="M 2.210938 -6.402344 C 3.265625 -6.203125 4.15625 -6.945312 4.601562 -8.347656 C 4.832031 -9.105469 5.046875 -9.1875 5.046875 -9.1875 C 5.3125 -9.1875 6.003906 -8.082031 6.46875 -6.714844 C 6.484375 -6.699219 6.664062 -6.1875 6.929688 -5.363281 C 6.367188 -4.421875 5.871094 -3.464844 5.410156 -2.507812 C 4.15625 0.164062 2.707031 4.125 2.9375 7.785156 C 3.101562 10.226562 4.289062 11.167969 5.34375 11.234375 C 5.378906 11.234375 5.425781 11.234375 5.460938 11.234375 C 6.828125 11.234375 8.480469 9.816406 9.039062 6.679688 C 9.816406 2.277344 8.644531 -2.671875 7.867188 -5.261719 C 9.171875 -7.421875 10.640625 -9.402344 12.140625 -10.988281 C 12.222656 -11.070312 12.257812 -11.183594 12.257812 -11.300781 C 12.257812 -11.414062 12.207031 -11.515625 12.125 -11.597656 C 12.042969 -11.679688 11.925781 -11.714844 11.8125 -11.714844 C 11.695312 -11.714844 11.597656 -11.664062 11.515625 -11.582031 C 10.128906 -10.128906 8.761719 -8.332031 7.523438 -6.351562 C 7.390625 -6.730469 7.308594 -6.960938 7.292969 -7.011719 C 6.976562 -7.917969 6.136719 -10.046875 5.046875 -10.046875 L 5.03125 -10.046875 C 4.207031 -10.046875 3.875 -8.957031 3.761719 -8.59375 C 3.464844 -7.636719 2.953125 -7.144531 2.375 -7.257812 C 1.402344 -7.421875 0.429688 -9.007812 0.542969 -11.265625 C 0.5625 -11.5 0.378906 -11.695312 0.132812 -11.714844 C -0.0976562 -11.730469 -0.3125 -11.546875 -0.328125 -11.300781 C -0.476562 -8.546875 0.859375 -6.648438 2.210938 -6.402344 Z M 5.394531 10.359375 C 4.519531 10.3125 3.910156 9.304688 3.8125 7.738281 C 3.597656 4.503906 4.851562 0.164062 7.257812 -4.191406 C 7.933594 -1.75 8.859375 2.6875 8.183594 6.515625 C 7.71875 9.121094 6.433594 10.410156 5.394531 10.359375 Z M 5.394531 10.359375 "/></g></g></g><g fill="#ffffff" fill-opacity="1"><g transform="translate(196.285152, 79.965828)"><g><path d="M 11.332031 -11.582031 C 11.21875 -11.613281 11.019531 -11.628906 10.96875 -11.398438 C 10.953125 -11.382812 10.179688 -8.925781 8.296875 -7.191406 C 7.851562 -6.78125 7.472656 -6.632812 7.175781 -6.746094 C 6.335938 -7.078125 5.742188 -9.46875 5.574219 -11.648438 C 5.558594 -11.878906 5.511719 -12.605469 4.964844 -12.785156 C 4.273438 -13.015625 3.515625 -12.207031 2.128906 -10.640625 L 1.980469 -10.476562 C 1.371094 -9.78125 0.496094 -9.46875 0.015625 -9.566406 C -0.0664062 -9.585938 -0.164062 -9.617188 -0.179688 -9.683594 C -0.230469 -9.816406 -0.148438 -10.210938 0.460938 -10.871094 C 2.390625 -13.015625 4.949219 -13.328125 6.632812 -12.6875 C 6.847656 -12.605469 7.109375 -12.71875 7.191406 -12.933594 C 7.273438 -13.164062 7.160156 -13.410156 6.945312 -13.496094 C 4.980469 -14.238281 2.027344 -13.90625 -0.179688 -11.464844 C -0.90625 -10.65625 -1.1875 -9.964844 -1.007812 -9.402344 C -0.890625 -9.058594 -0.59375 -8.792969 -0.164062 -8.710938 C 0.578125 -8.5625 1.765625 -8.925781 2.640625 -9.898438 L 2.789062 -10.0625 C 3.367188 -10.722656 4.304688 -11.796875 4.652344 -11.945312 C 4.683594 -11.878906 4.703125 -11.777344 4.71875 -11.582031 C 4.800781 -10.425781 5.195312 -6.597656 6.863281 -5.9375 C 7.027344 -5.871094 7.210938 -5.839844 7.390625 -5.839844 C 7.867188 -5.839844 8.363281 -6.070312 8.890625 -6.550781 C 10.96875 -8.464844 11.5625 -11.203125 11.582031 -11.316406 C 11.597656 -11.515625 11.449219 -11.582031 11.332031 -11.582031 Z M 11.332031 -11.582031 "/></g></g></g><g fill="#ffffff" fill-opacity="1"><g transform="translate(207.482926, 79.965828)"><g><path d="M 6.019531 -12.867188 C 6.566406 -12.785156 6.648438 -11.746094 6.648438 -11.300781 C 6.765625 -5.113281 7.65625 -4.058594 8.496094 -3.84375 C 8.59375 -3.828125 8.675781 -3.8125 8.777344 -3.8125 C 10.113281 -3.8125 11.515625 -6.269531 12.867188 -8.660156 C 13.328125 -9.453125 13.742188 -10.210938 14.105469 -10.722656 C 14.238281 -10.921875 14.1875 -11.183594 13.988281 -11.332031 C 13.890625 -11.398438 13.773438 -11.414062 13.660156 -11.398438 C 13.542969 -11.382812 13.445312 -11.316406 13.378906 -11.21875 C 13.015625 -10.671875 12.570312 -9.898438 12.109375 -9.089844 C 11.628906 -8.230469 10.953125 -7.0625 10.3125 -6.136719 C 9.402344 -4.832031 8.941406 -4.636719 8.710938 -4.683594 C 8.464844 -4.75 7.621094 -5.410156 7.507812 -11.316406 C 7.488281 -13.230469 6.648438 -13.644531 6.152344 -13.726562 C 4.785156 -13.941406 2.820312 -12.042969 2.046875 -9.714844 C 1.816406 -9.058594 1.648438 -8.726562 1.535156 -8.5625 C 1.5 -8.660156 1.46875 -8.792969 1.453125 -8.890625 C 1.304688 -10.179688 1.1875 -11.449219 1.105469 -12.390625 C 1.402344 -13.261719 1.304688 -13.988281 1.105469 -14.304688 C 0.90625 -14.601562 0.644531 -14.566406 0.5625 -14.550781 C 0.476562 -14.535156 0.214844 -14.453125 0.164062 -14.070312 C 0.132812 -13.890625 0.148438 -13.378906 0.214844 -12.503906 C 0.0976562 -12.207031 -0.0664062 -11.910156 -0.28125 -11.597656 C -0.347656 -11.515625 -0.378906 -11.398438 -0.363281 -11.285156 C -0.347656 -11.167969 -0.28125 -11.070312 -0.179688 -11.003906 C -0.0820312 -10.9375 0.03125 -10.90625 0.148438 -10.921875 C 0.214844 -10.9375 0.296875 -10.96875 0.347656 -11.019531 C 0.445312 -10.0625 0.542969 -9.15625 0.59375 -8.792969 L 0.59375 -8.761719 C 0.644531 -8.414062 0.839844 -7.605469 1.453125 -7.554688 C 1.980469 -7.507812 2.390625 -8.050781 2.855469 -9.4375 C 3.53125 -11.414062 5.179688 -13 6.019531 -12.867188 Z M 6.019531 -12.867188 "/></g></g></g><g fill="#ffffff" fill-opacity="1"><g transform="translate(221.236886, 79.965828)"><g><path d="M 6.382812 -10.558594 C 6.46875 -10.773438 6.367188 -11.019531 6.136719 -11.117188 C 5.921875 -11.203125 5.660156 -11.101562 5.574219 -10.871094 C 4.636719 -8.5625 3.578125 -7.359375 2.640625 -7.605469 C 1.945312 -7.785156 1.285156 -8.777344 0.90625 -10.277344 C 0.460938 -11.945312 0.414062 -13.113281 0.625 -12.933594 C 0.660156 -13.296875 0.511719 -13.496094 0.378906 -13.59375 C 0.0820312 -13.792969 -0.265625 -13.660156 -0.328125 -13.625 C -0.542969 -13.527344 -0.644531 -13.28125 -0.542969 -13.066406 C -0.496094 -12.949219 -0.394531 -12.851562 -0.265625 -12.816406 C -0.460938 -12.917969 -0.378906 -11.664062 0.0976562 -9.929688 C 0.578125 -8.148438 1.417969 -7.027344 2.425781 -6.765625 C 2.574219 -6.730469 2.722656 -6.699219 2.871094 -6.699219 C 3.761719 -6.699219 5.097656 -7.375 6.382812 -10.558594 Z M -0.414062 -14.78125 L -0.394531 -14.78125 C -0.394531 -14.765625 -0.378906 -14.765625 -0.378906 -14.75 C -0.296875 -14.664062 -0.179688 -14.617188 -0.0507812 -14.617188 C 0.0507812 -14.617188 0.164062 -14.648438 0.230469 -14.714844 C 0.328125 -14.796875 0.378906 -14.914062 0.378906 -15.027344 C 0.378906 -15.144531 0.347656 -15.242188 0.265625 -15.34375 C 0.246094 -15.359375 0.230469 -15.375 0.199219 -15.410156 C 0.0820312 -15.523438 -0.0820312 -15.671875 -0.0664062 -15.953125 C -0.0664062 -16.183594 -0.246094 -16.398438 -0.496094 -16.398438 C -0.742188 -16.398438 -0.941406 -16.214844 -0.941406 -15.984375 C -0.957031 -15.324219 -0.578125 -14.945312 -0.414062 -14.78125 Z M -0.414062 -14.78125 "/></g></g></g><g fill="#ffffff" fill-opacity="1"><g transform="translate(227.305779, 79.965828)"><g/></g></g><g fill="#ffffff" fill-opacity="1"><g transform="translate(240.235161, 79.965828)"><g><path d="M 12.902344 -43.058594 C 10.707031 -42.828125 8.015625 -41.523438 5.511719 -39.445312 C 3.070312 -37.433594 1.171875 -34.988281 0.445312 -32.894531 C -1.566406 -27.238281 -0.609375 -21.050781 4.109375 -9.304688 C 4.503906 -8.363281 4.800781 -7.441406 5.03125 -6.582031 C 3.167969 -5.164062 1.898438 -3.8125 1.269531 -2.539062 C 0.3125 -0.757812 0.28125 0.859375 1.1875 1.765625 C 1.566406 2.144531 2.0625 2.359375 2.605469 2.359375 C 2.9375 2.359375 3.25 2.277344 3.546875 2.128906 C 3.695312 2.078125 5.015625 1.46875 5.789062 -0.347656 C 6.46875 -1.914062 6.53125 -3.894531 6.003906 -6.21875 C 9.207031 -8.5625 13.082031 -10.328125 14.847656 -10.640625 C 15.078125 -10.671875 15.242188 -10.90625 15.195312 -11.136719 C 15.160156 -11.367188 14.929688 -11.53125 14.699219 -11.5 C 12.933594 -11.183594 9.039062 -9.4375 5.773438 -7.144531 C 5.558594 -7.933594 5.261719 -8.777344 4.917969 -9.632812 C 0.296875 -21.148438 -0.660156 -27.171875 1.253906 -32.613281 C 2.753906 -36.855469 8.792969 -41.769531 12.984375 -42.183594 C 14.648438 -42.347656 15.855469 -41.820312 16.597656 -40.582031 C 16.644531 -40.484375 16.746094 -40.417969 16.859375 -40.382812 C 16.976562 -40.351562 17.089844 -40.367188 17.191406 -40.433594 C 17.289062 -40.484375 17.355469 -40.582031 17.386719 -40.699219 C 17.421875 -40.8125 17.40625 -40.929688 17.339844 -41.027344 C 16.429688 -42.546875 14.898438 -43.253906 12.902344 -43.058594 Z M 2.046875 -2.144531 C 2.558594 -3.183594 3.664062 -4.40625 5.246094 -5.640625 C 5.742188 -3.117188 5.363281 -1.519531 4.964844 -0.609375 C 4.304688 0.859375 3.21875 1.335938 3.199219 1.335938 L 3.167969 1.351562 C 2.6875 1.601562 2.160156 1.519531 1.796875 1.15625 C 1.1875 0.527344 1.269531 -0.710938 2.046875 -2.144531 Z M 2.046875 -2.144531 "/></g></g></g><g fill="#ffffff" fill-opacity="1"><g transform="translate(255.061078, 79.965828)"><g><path d="M 11.332031 -11.582031 C 11.21875 -11.613281 11.019531 -11.628906 10.96875 -11.398438 C 10.953125 -11.382812 10.179688 -8.925781 8.296875 -7.191406 C 7.851562 -6.78125 7.472656 -6.632812 7.175781 -6.746094 C 6.335938 -7.078125 5.742188 -9.46875 5.574219 -11.648438 C 5.558594 -11.878906 5.511719 -12.605469 4.964844 -12.785156 C 4.273438 -13.015625 3.515625 -12.207031 2.128906 -10.640625 L 1.980469 -10.476562 C 1.371094 -9.78125 0.496094 -9.46875 0.015625 -9.566406 C -0.0664062 -9.585938 -0.164062 -9.617188 -0.179688 -9.683594 C -0.230469 -9.816406 -0.148438 -10.210938 0.460938 -10.871094 C 2.390625 -13.015625 4.949219 -13.328125 6.632812 -12.6875 C 6.847656 -12.605469 7.109375 -12.71875 7.191406 -12.933594 C 7.273438 -13.164062 7.160156 -13.410156 6.945312 -13.496094 C 4.980469 -14.238281 2.027344 -13.90625 -0.179688 -11.464844 C -0.90625 -10.65625 -1.1875 -9.964844 -1.007812 -9.402344 C -0.890625 -9.058594 -0.59375 -8.792969 -0.164062 -8.710938 C 0.578125 -8.5625 1.765625 -8.925781 2.640625 -9.898438 L 2.789062 -10.0625 C 3.367188 -10.722656 4.304688 -11.796875 4.652344 -11.945312 C 4.683594 -11.878906 4.703125 -11.777344 4.71875 -11.582031 C 4.800781 -10.425781 5.195312 -6.597656 6.863281 -5.9375 C 7.027344 -5.871094 7.210938 -5.839844 7.390625 -5.839844 C 7.867188 -5.839844 8.363281 -6.070312 8.890625 -6.550781 C 10.96875 -8.464844 11.5625 -11.203125 11.582031 -11.316406 C 11.597656 -11.515625 11.449219 -11.582031 11.332031 -11.582031 Z M 11.332031 -11.582031 "/></g></g></g><g fill="#ffffff" fill-opacity="1"><g transform="translate(266.258852, 79.965828)"><g><path d="M -0.0507812 -10.691406 C 0.179688 -10.625 0.429688 -10.757812 0.496094 -10.96875 C 1.386719 -13.742188 1.996094 -16.066406 2.324219 -17.851562 C 3.367188 -17.191406 4.652344 -17.125 6.152344 -17.617188 C 6.617188 -17.765625 6.945312 -17.765625 7.175781 -17.601562 C 7.96875 -17.007812 7.886719 -14.171875 7.785156 -10.886719 C 7.738281 -9.253906 7.671875 -7.390625 7.703125 -5.363281 C 7.71875 -2.921875 8.230469 -1.648438 9.253906 -1.46875 C 9.320312 -1.453125 9.386719 -1.453125 9.46875 -1.453125 C 11.648438 -1.453125 14.8125 -6.976562 16.28125 -10.953125 C 16.316406 -11.070312 16.316406 -11.183594 16.265625 -11.300781 C 16.214844 -11.398438 16.132812 -11.480469 16.019531 -11.515625 C 15.789062 -11.597656 15.539062 -11.480469 15.457031 -11.265625 C 13.792969 -6.699219 10.671875 -2.113281 9.402344 -2.324219 C 9.207031 -2.359375 8.59375 -2.671875 8.5625 -5.378906 C 8.546875 -7.390625 8.59375 -9.238281 8.660156 -10.871094 C 8.777344 -14.832031 8.859375 -17.4375 7.6875 -18.3125 C 7.226562 -18.640625 6.632812 -18.691406 5.890625 -18.445312 C 4.488281 -17.980469 3.316406 -18.097656 2.472656 -18.804688 C 2.707031 -20.621094 2.539062 -21.695312 1.980469 -22.089844 C 1.683594 -22.304688 1.304688 -22.289062 0.988281 -22.054688 C 0.394531 -21.609375 0.394531 -20.40625 0.972656 -19.316406 C 1.074219 -19.121094 1.253906 -18.804688 1.550781 -18.492188 C 1.269531 -16.695312 0.644531 -14.253906 -0.328125 -11.25 C -0.394531 -11.019531 -0.28125 -10.773438 -0.0507812 -10.691406 Z M 1.5 -21.347656 C 1.566406 -21.25 1.75 -20.902344 1.683594 -19.8125 C 1.304688 -20.605469 1.386719 -21.25 1.5 -21.347656 Z M 1.5 -21.347656 "/></g></g></g><g fill="#ffffff" fill-opacity="1"><g transform="translate(282.041279, 79.965828)"><g><path d="M 11.332031 -11.582031 C 11.21875 -11.613281 11.019531 -11.628906 10.96875 -11.398438 C 10.953125 -11.382812 10.179688 -8.925781 8.296875 -7.191406 C 7.851562 -6.78125 7.472656 -6.632812 7.175781 -6.746094 C 6.335938 -7.078125 5.742188 -9.46875 5.574219 -11.648438 C 5.558594 -11.878906 5.511719 -12.605469 4.964844 -12.785156 C 4.273438 -13.015625 3.515625 -12.207031 2.128906 -10.640625 L 1.980469 -10.476562 C 1.371094 -9.78125 0.496094 -9.46875 0.015625 -9.566406 C -0.0664062 -9.585938 -0.164062 -9.617188 -0.179688 -9.683594 C -0.230469 -9.816406 -0.148438 -10.210938 0.460938 -10.871094 C 2.390625 -13.015625 4.949219 -13.328125 6.632812 -12.6875 C 6.847656 -12.605469 7.109375 -12.71875 7.191406 -12.933594 C 7.273438 -13.164062 7.160156 -13.410156 6.945312 -13.496094 C 4.980469 -14.238281 2.027344 -13.90625 -0.179688 -11.464844 C -0.90625 -10.65625 -1.1875 -9.964844 -1.007812 -9.402344 C -0.890625 -9.058594 -0.59375 -8.792969 -0.164062 -8.710938 C 0.578125 -8.5625 1.765625 -8.925781 2.640625 -9.898438 L 2.789062 -10.0625 C 3.367188 -10.722656 4.304688 -11.796875 4.652344 -11.945312 C 4.683594 -11.878906 4.703125 -11.777344 4.71875 -11.582031 C 4.800781 -10.425781 5.195312 -6.597656 6.863281 -5.9375 C 7.027344 -5.871094 7.210938 -5.839844 7.390625 -5.839844 C 7.867188 -5.839844 8.363281 -6.070312 8.890625 -6.550781 C 10.96875 -8.464844 11.5625 -11.203125 11.582031 -11.316406 C 11.597656 -11.515625 11.449219 -11.582031 11.332031 -11.582031 Z M 11.332031 -11.582031 "/></g></g></g><g fill="#ffffff" fill-opacity="1"><g transform="translate(293.239041, 79.965828)"><g><path d="M 0.347656 21.066406 C 0.378906 21.066406 0.414062 21.066406 0.445312 21.066406 C 0.890625 20.984375 0.890625 20.503906 0.90625 19.828125 C 0.925781 19.351562 0.90625 18.65625 0.890625 17.71875 C 0.839844 15.953125 0.726562 13.511719 0.609375 10.90625 C 0.460938 7.6875 0.296875 4.089844 0.214844 0.972656 C 0.230469 -0.03125 0.246094 -1.054688 0.246094 -2.0625 C 2.984375 -2.261719 5.574219 -3.464844 7.125 -5.246094 C 7.175781 -5.246094 7.226562 -5.246094 7.257812 -5.246094 C 9.402344 -5.195312 10.953125 -5.148438 12.289062 -5.824219 C 13.660156 -6.515625 14.699219 -7.933594 15.769531 -10.574219 C 15.871094 -10.804688 15.753906 -11.054688 15.539062 -11.152344 C 15.308594 -11.25 15.046875 -11.136719 14.945312 -10.90625 C 13.015625 -6.1875 11.53125 -6.039062 7.785156 -6.121094 C 7.886719 -6.269531 7.96875 -6.417969 8.035156 -6.566406 C 8.957031 -8.363281 8.761719 -10.226562 7.472656 -11.828125 C 6.699219 -12.785156 5.34375 -13.113281 3.910156 -12.6875 C 2.835938 -12.371094 1.816406 -11.628906 1.039062 -10.625 C 0.808594 -10.328125 0.609375 -10.015625 0.429688 -9.667969 C 0.445312 -10.046875 0.445312 -10.425781 0.460938 -10.804688 C 2.621094 -17.273438 2.492188 -20.226562 2.492188 -20.339844 C 2.492188 -20.355469 2.492188 -20.355469 2.492188 -20.375 C 2.277344 -22.171875 1.714844 -22.1875 1.535156 -22.203125 C 0.957031 -22.222656 0.609375 -21.578125 0.199219 -19.597656 C -0.0664062 -18.3125 -0.28125 -14.980469 -0.429688 -10.953125 C -0.429688 -10.9375 -0.445312 -10.90625 -0.445312 -10.886719 C -0.476562 -10.773438 -0.476562 -10.65625 -0.429688 -10.574219 C -0.476562 -9.1875 -0.527344 -7.753906 -0.5625 -6.285156 C -0.609375 -5.972656 -0.644531 -5.542969 -0.675781 -5.03125 C -1.648438 -4.636719 -2.902344 -3.960938 -2.9375 -3.132812 C -2.9375 -2.921875 -2.871094 -2.558594 -2.359375 -2.308594 C -2.0625 -2.160156 -1.667969 -2.078125 -1.121094 -2.0625 C -0.988281 -2.046875 -0.859375 -2.046875 -0.726562 -2.046875 C -0.726562 -1.105469 -0.710938 -0.0820312 -0.675781 1.023438 C -0.675781 1.054688 -0.675781 1.105469 -0.675781 1.15625 C -0.742188 9.140625 -0.660156 19.019531 -0.164062 20.554688 C -0.0507812 20.96875 0.164062 21.066406 0.347656 21.066406 Z M -2.027344 -3.132812 C -1.945312 -3.300781 -1.550781 -3.664062 -0.710938 -4.042969 C -0.726562 -3.695312 -0.726562 -3.332031 -0.726562 -2.9375 C -0.839844 -2.9375 -0.957031 -2.9375 -1.074219 -2.953125 C -1.714844 -2.984375 -1.945312 -3.085938 -2.027344 -3.132812 Z M 0.296875 -4.453125 C 1.269531 -4.785156 3.101562 -5.296875 5.378906 -5.277344 C 5.558594 -5.277344 5.742188 -5.277344 5.921875 -5.277344 C 4.503906 -3.992188 2.441406 -3.132812 0.265625 -2.96875 C 0.28125 -3.464844 0.28125 -3.960938 0.296875 -4.453125 Z M 0.328125 -6.234375 C 0.660156 -9.617188 2.605469 -11.367188 4.171875 -11.84375 C 5.246094 -12.160156 6.234375 -11.945312 6.78125 -11.265625 C 8.132812 -9.601562 7.769531 -8.015625 7.242188 -6.976562 C 7.09375 -6.699219 6.929688 -6.417969 6.730469 -6.152344 C 6.300781 -6.152344 5.855469 -6.167969 5.378906 -6.167969 C 5.363281 -6.167969 5.328125 -6.167969 5.3125 -6.167969 C 3.167969 -6.167969 1.402344 -5.742188 0.3125 -5.394531 C 0.3125 -5.675781 0.328125 -5.957031 0.328125 -6.234375 Z M 1.46875 -20.933594 C 1.519531 -20.738281 1.566406 -20.503906 1.601562 -20.292969 C 1.601562 -20.109375 1.632812 -18.230469 0.625 -14.417969 C 0.742188 -16.792969 0.890625 -18.59375 1.074219 -19.417969 C 1.238281 -20.191406 1.371094 -20.652344 1.46875 -20.933594 Z M 1.46875 -20.933594 "/></g></g></g><g fill="#ffffff" fill-opacity="1"><g transform="translate(308.576203, 79.965828)"><g/></g></g><g fill="#ffffff" fill-opacity="1"><g transform="translate(321.505584, 79.965828)"><g><path d="M 9.15625 5.460938 C 16.429688 5.460938 26.988281 -2.804688 29.59375 -10.804688 C 29.660156 -11.035156 29.53125 -11.285156 29.296875 -11.367188 C 29.066406 -11.433594 28.820312 -11.316406 28.738281 -11.070312 C 27.515625 -7.308594 24.285156 -3.167969 20.058594 0.03125 C 15.886719 3.183594 11.5 4.867188 8.316406 4.535156 C 5.277344 4.222656 3.546875 2.160156 3.152344 -1.582031 C 2.390625 -8.824219 7.078125 -14.632812 11.136719 -18.210938 C 15.589844 -22.140625 20.292969 -24.367188 20.339844 -24.382812 C 20.539062 -24.480469 20.636719 -24.710938 20.570312 -24.910156 C 20.503906 -25.125 20.308594 -25.257812 20.09375 -25.242188 C 20.011719 -25.222656 12.390625 -24.234375 9.832031 -27.238281 C 8.941406 -28.277344 8.777344 -29.726562 9.320312 -31.558594 C 10.558594 -35.585938 13.132812 -37.894531 15.09375 -39.113281 C 17.683594 -40.765625 20.207031 -41.175781 21.59375 -41.042969 C 22.585938 -40.960938 23.128906 -40.515625 23.210938 -39.742188 C 23.394531 -38.15625 21.511719 -35.269531 18.046875 -34.148438 C 17.800781 -34.066406 17.683594 -33.820312 17.75 -33.589844 C 17.832031 -33.355469 18.082031 -33.226562 18.3125 -33.308594 C 20.011719 -33.851562 21.5625 -34.875 22.667969 -36.179688 C 23.707031 -37.398438 24.21875 -38.734375 24.101562 -39.839844 C 23.96875 -41.042969 23.097656 -41.804688 21.675781 -41.933594 C 20.09375 -42.082031 17.386719 -41.621094 14.617188 -39.875 C 12.539062 -38.570312 9.78125 -36.09375 8.480469 -31.804688 C 7.820312 -29.679688 8.050781 -27.945312 9.15625 -26.660156 C 11.117188 -24.351562 15.425781 -24.101562 18.046875 -24.183594 C 16.214844 -23.144531 13.347656 -21.347656 10.574219 -18.90625 C 7.886719 -16.53125 5.808594 -14.039062 4.40625 -11.464844 C 2.621094 -8.230469 1.914062 -4.867188 2.261719 -1.5 C 2.492188 0.644531 3.152344 2.324219 4.222656 3.496094 C 5.230469 4.601562 6.582031 5.246094 8.230469 5.425781 C 8.527344 5.460938 8.84375 5.460938 9.15625 5.460938 Z M 9.15625 5.460938 "/></g></g></g><g fill="#ffffff" fill-opacity="1"><g transform="translate(350.695655, 79.965828)"><g><path d="M -0.246094 -11.613281 C -0.28125 -11.515625 -0.28125 -11.382812 -0.214844 -11.285156 C -0.164062 -11.183594 -0.0664062 -11.117188 0.03125 -11.070312 C 0.179688 -11.035156 0.3125 -11.070312 0.429688 -11.152344 C 0.542969 -10.90625 0.660156 -10.691406 0.808594 -10.476562 C 1.765625 -8.957031 2.492188 -8.28125 3.199219 -8.28125 C 3.25 -8.28125 3.300781 -8.28125 3.332031 -8.296875 C 4.089844 -8.378906 4.453125 -9.238281 4.667969 -9.882812 C 5.527344 -12.488281 7.71875 -17.023438 9.699219 -18.425781 C 9.898438 -18.558594 9.929688 -18.824219 9.800781 -19.019531 C 9.667969 -19.21875 9.386719 -19.269531 9.1875 -19.136719 C 6.828125 -17.453125 4.570312 -12.355469 3.84375 -10.144531 C 3.546875 -9.253906 3.300781 -9.171875 3.234375 -9.15625 C 3.152344 -9.140625 2.640625 -9.1875 1.535156 -10.9375 C 1.269531 -11.367188 1.039062 -11.84375 0.859375 -12.339844 C 1.566406 -14.929688 1.699219 -16.496094 1.253906 -17.140625 C 1.105469 -17.371094 0.890625 -17.488281 0.644531 -17.503906 C 0.460938 -17.519531 0.199219 -17.453125 -0.015625 -17.109375 C -0.414062 -16.429688 -0.691406 -14.453125 -0.0507812 -12.324219 C -0.117188 -12.09375 -0.179688 -11.863281 -0.246094 -11.613281 Z M 0.609375 -16.398438 C 0.660156 -16.101562 0.675781 -15.507812 0.460938 -14.386719 C 0.394531 -15.277344 0.496094 -16.003906 0.609375 -16.398438 Z M 0.609375 -16.398438 "/></g></g></g><g fill="#ffffff" fill-opacity="1"><g transform="translate(359.881459, 79.965828)"><g><path d="M 6.382812 -10.558594 C 6.46875 -10.773438 6.367188 -11.019531 6.136719 -11.117188 C 5.921875 -11.203125 5.660156 -11.101562 5.574219 -10.871094 C 4.636719 -8.5625 3.578125 -7.359375 2.640625 -7.605469 C 1.945312 -7.785156 1.285156 -8.777344 0.90625 -10.277344 C 0.460938 -11.945312 0.414062 -13.113281 0.625 -12.933594 C 0.660156 -13.296875 0.511719 -13.496094 0.378906 -13.59375 C 0.0820312 -13.792969 -0.265625 -13.660156 -0.328125 -13.625 C -0.542969 -13.527344 -0.644531 -13.28125 -0.542969 -13.066406 C -0.496094 -12.949219 -0.394531 -12.851562 -0.265625 -12.816406 C -0.460938 -12.917969 -0.378906 -11.664062 0.0976562 -9.929688 C 0.578125 -8.148438 1.417969 -7.027344 2.425781 -6.765625 C 2.574219 -6.730469 2.722656 -6.699219 2.871094 -6.699219 C 3.761719 -6.699219 5.097656 -7.375 6.382812 -10.558594 Z M -0.414062 -14.78125 L -0.394531 -14.78125 C -0.394531 -14.765625 -0.378906 -14.765625 -0.378906 -14.75 C -0.296875 -14.664062 -0.179688 -14.617188 -0.0507812 -14.617188 C 0.0507812 -14.617188 0.164062 -14.648438 0.230469 -14.714844 C 0.328125 -14.796875 0.378906 -14.914062 0.378906 -15.027344 C 0.378906 -15.144531 0.347656 -15.242188 0.265625 -15.34375 C 0.246094 -15.359375 0.230469 -15.375 0.199219 -15.410156 C 0.0820312 -15.523438 -0.0820312 -15.671875 -0.0664062 -15.953125 C -0.0664062 -16.183594 -0.246094 -16.398438 -0.496094 -16.398438 C -0.742188 -16.398438 -0.941406 -16.214844 -0.941406 -15.984375 C -0.957031 -15.324219 -0.578125 -14.945312 -0.414062 -14.78125 Z M -0.414062 -14.78125 "/></g></g></g><path fill="#ffffff" d="M 26.460938 63.449219 C 27.226562 68.160156 26.761719 72.660156 26.320312 77.164062 C 25.917969 81.21875 25.386719 85.269531 25.730469 89.355469 C 25.835938 90.648438 26.011719 91.933594 26.261719 93.207031 C 26.980469 96.824219 28.976562 99.605469 32.042969 101.609375 C 33.125 102.316406 34.3125 102.863281 35.4375 103.511719 C 36.117188 103.902344 36.742188 103.855469 37.472656 103.5625 C 41 102.128906 44.535156 100.710938 48.097656 99.378906 C 50.996094 98.292969 53.996094 97.523438 57.085938 97.191406 C 59.28125 96.957031 61.421875 97.011719 63.539062 97.914062 C 67.863281 99.761719 71.085938 106.242188 66.390625 111.230469 C 63.566406 114.226562 60.070312 115.730469 55.875 115.257812 C 55.597656 115.226562 55.332031 115.070312 54.796875 114.878906 C 55.25 114.59375 55.464844 114.382812 55.714844 114.324219 C 56.011719 114.257812 56.339844 114.316406 56.652344 114.339844 C 60.339844 114.621094 63.289062 113.078125 65.746094 110.515625 C 67.675781 108.503906 68.234375 106.050781 67.316406 103.421875 C 66.367188 100.707031 64.515625 98.898438 61.574219 98.351562 C 59.238281 97.914062 56.933594 98.0625 54.632812 98.53125 C 49.957031 99.480469 45.550781 101.265625 41.15625 103.066406 C 40.125 103.488281 39.097656 103.933594 37.890625 104.441406 C 38.328125 104.667969 38.613281 104.832031 38.914062 104.957031 C 40.523438 105.636719 42.171875 106.230469 43.742188 106.996094 C 44.859375 107.539062 45.960938 108.195312 46.902344 108.996094 C 49.039062 110.820312 49.164062 112.8125 47.417969 114.996094 C 46.132812 116.605469 44.476562 117.730469 42.621094 118.589844 C 40.160156 119.730469 37.539062 120.3125 34.898438 120.835938 C 29.789062 121.84375 24.640625 122.570312 19.425781 122.5 C 15.429688 122.449219 11.449219 122.09375 7.652344 120.714844 C 6.511719 120.308594 5.421875 119.796875 4.382812 119.175781 C 3.539062 118.65625 2.792969 118.023438 2.144531 117.273438 C 0.0234375 114.804688 0.496094 111.917969 3.25 110.179688 C 4.835938 109.183594 6.617188 108.753906 8.414062 108.351562 C 10.339844 107.925781 12.269531 107.523438 14.171875 107.027344 C 15.066406 106.792969 15.90625 106.367188 16.953125 105.960938 C 16.546875 105.539062 16.292969 105.261719 16.027344 105 C 15.121094 104.101562 14.386719 103.09375 14.046875 101.851562 C 13.898438 101.332031 13.828125 100.804688 13.832031 100.265625 C 13.890625 98.199219 15.671875 97.050781 17.601562 97.800781 C 19.667969 98.601562 20.804688 101.09375 20.058594 103.394531 C 19.789062 104.222656 19.292969 104.976562 18.875 105.8125 C 20.179688 106.574219 21.605469 106.894531 23.089844 107.003906 C 25.953125 107.21875 28.707031 106.628906 31.414062 105.773438 C 32.589844 105.398438 33.75 104.972656 35.148438 104.488281 C 34.324219 104.054688 33.730469 103.753906 33.148438 103.429688 C 29.9375 101.625 27.25 99.28125 26.03125 95.699219 C 25.449219 93.980469 25.085938 92.148438 24.886719 90.339844 C 24.453125 86.402344 24.867188 82.472656 25.214844 78.542969 C 25.519531 75.070312 25.777344 71.585938 25.910156 68.097656 C 25.972656 66.511719 25.675781 64.910156 25.542969 63.320312 C 24.757812 63.113281 24.15625 62.964844 23.558594 62.792969 C 20 61.75 17.171875 59.605469 14.746094 56.882812 C 11.132812 52.835938 8.980469 48.0625 7.898438 42.792969 C 6.890625 37.929688 6.65625 33.027344 6.992188 28.082031 C 7.359375 22.65625 8.15625 17.316406 9.757812 12.109375 C 10 11.34375 10.28125 10.589844 10.605469 9.851562 C 10.773438 9.464844 10.984375 9.007812 11.609375 9.203125 C 11.640625 9.328125 11.734375 9.480469 11.691406 9.566406 C 10.304688 12.46875 9.707031 15.589844 9.105469 18.710938 C 7.96875 24.542969 7.585938 30.425781 7.960938 36.355469 C 8.257812 40.945312 9.160156 45.410156 11.121094 49.605469 C 12.773438 53.144531 15.023438 56.238281 18.050781 58.738281 C 19.867188 60.238281 21.890625 61.359375 24.183594 61.96875 C 24.355469 62.019531 24.53125 62.050781 24.707031 62.070312 C 24.785156 62.078125 24.871094 62.023438 25.101562 61.949219 C 24.800781 61.175781 24.574219 60.367188 24.179688 59.644531 C 23.535156 58.46875 22.792969 57.347656 22.074219 56.210938 C 21.476562 55.265625 20.78125 54.375 20.25 53.394531 C 18.640625 50.429688 19.210938 47.664062 21.949219 45.714844 C 23.175781 44.839844 24.574219 44.175781 25.964844 43.570312 C 27.765625 42.78125 29.640625 42.15625 31.476562 41.445312 C 32.101562 41.203125 32.710938 40.917969 33.324219 40.640625 C 36.324219 39.277344 38.390625 37.019531 39.660156 34 C 40.867188 31.128906 41.527344 28.128906 41.839844 25.035156 C 42.121094 22.242188 42.070312 19.46875 41.222656 16.789062 C 40.753906 15.3125 39.972656 13.933594 39.300781 12.527344 C 38.953125 11.804688 38.410156 11.539062 37.550781 11.699219 C 34.867188 12.195312 32.171875 12.679688 29.46875 13.035156 C 27.027344 13.351562 24.570312 13.566406 22.113281 13.679688 C 20.265625 13.765625 18.425781 13.441406 16.769531 12.574219 C 15.933594 12.136719 15.203125 11.566406 14.574219 10.863281 C 13.589844 9.742188 13.832031 8.484375 15.074219 7.648438 C 16.453125 6.714844 18.050781 6.410156 19.65625 6.234375 C 24.203125 5.75 28.695312 6.148438 33.121094 7.277344 C 35.191406 7.804688 37.054688 8.738281 38.640625 10.207031 C 38.972656 10.5 39.359375 10.675781 39.800781 10.734375 C 41.914062 10.996094 43.472656 12.066406 44.601562 13.824219 C 45.910156 15.867188 46.5 18.15625 46.890625 20.511719 C 47.65625 25.097656 47.582031 29.707031 47.128906 34.308594 C 46.613281 39.539062 45.578125 44.664062 43.660156 49.582031 C 42.5625 52.394531 41.1875 55.050781 39.28125 57.40625 C 37.050781 60.160156 34.351562 62.234375 30.820312 63.011719 C 29.867188 63.226562 28.875 63.273438 27.894531 63.378906 C 27.460938 63.421875 27.019531 63.425781 26.460938 63.449219 Z M 18.152344 106.585938 C 16.183594 107.253906 14.554688 107.867188 12.890625 108.351562 C 11.648438 108.714844 10.355469 108.902344 9.085938 109.175781 C 7.289062 109.566406 5.488281 109.945312 3.878906 110.90625 C 1.453125 112.355469 1.082031 114.628906 2.949219 116.757812 C 3.453125 117.335938 4.027344 117.832031 4.675781 118.238281 C 5.59375 118.796875 6.550781 119.273438 7.554688 119.664062 C 10.898438 120.945312 14.414062 121.351562 17.964844 121.5 C 23.777344 121.742188 29.496094 120.929688 35.179688 119.8125 C 37.550781 119.34375 39.90625 118.78125 42.117188 117.757812 C 43.96875 116.902344 45.648438 115.796875 46.863281 114.121094 C 48.019531 112.527344 47.980469 111.253906 46.515625 109.964844 C 45.496094 109.085938 44.378906 108.363281 43.160156 107.792969 C 41.265625 106.886719 39.265625 106.203125 37.339844 105.359375 C 36.65625 105.058594 36.078125 105.121094 35.414062 105.375 C 33.992188 105.914062 32.558594 106.4375 31.097656 106.863281 C 26.667969 108.144531 22.238281 108.800781 18.152344 106.585938 Z M 40.332031 11.839844 C 41.023438 13.675781 41.839844 15.378906 42.308594 17.175781 C 43.34375 21.109375 43.003906 25.082031 42.195312 29.015625 C 41.957031 30.195312 41.601562 31.355469 41.25 32.507812 C 39.828125 37.175781 36.890625 40.445312 32.285156 42.171875 C 30.148438 42.972656 27.992188 43.738281 25.898438 44.632812 C 24.671875 45.15625 23.457031 45.789062 22.390625 46.574219 C 20.203125 48.1875 19.746094 50.324219 20.996094 52.730469 C 21.53125 53.757812 22.203125 54.71875 22.878906 55.664062 C 24.207031 57.539062 25.367188 59.488281 26.011719 61.714844 C 26.070312 61.921875 26.191406 62.113281 26.289062 62.324219 C 27.984375 62.511719 29.617188 62.410156 31.230469 61.933594 C 34.804688 60.878906 37.375 58.539062 39.453125 55.566406 C 41.714844 52.335938 43.136719 48.71875 44.191406 44.953125 C 45.589844 39.976562 46.289062 34.894531 46.464844 29.730469 C 46.589844 26 46.386719 22.304688 45.542969 18.664062 C 45.15625 17 44.566406 15.402344 43.554688 14 C 42.753906 12.882812 41.730469 12.078125 40.332031 11.839844 Z M 37.347656 10.757812 C 37.378906 10.667969 37.410156 10.574219 37.441406 10.480469 C 37.097656 10.21875 36.789062 9.882812 36.40625 9.714844 C 35.101562 9.136719 33.8125 8.472656 32.445312 8.109375 C 28.695312 7.105469 24.847656 6.824219 20.976562 7.050781 C 19.285156 7.148438 17.578125 7.378906 16.03125 8.183594 C 14.707031 8.871094 14.597656 9.652344 15.652344 10.699219 C 16.578125 11.609375 17.746094 12.070312 18.972656 12.363281 C 21.367188 12.9375 23.792969 12.851562 26.191406 12.515625 C 29.925781 11.996094 33.632812 11.351562 37.347656 10.757812 Z M 17.691406 105.128906 C 19.632812 103.941406 19.941406 100.753906 18.054688 99.167969 C 17.277344 98.515625 16.265625 98.355469 15.574219 98.761719 C 14.929688 99.136719 14.621094 100.011719 14.820312 101.015625 C 15.179688 102.824219 16.269531 104.105469 17.691406 105.128906 Z M 17.691406 105.128906 " fill-opacity="1" fill-rule="nonzero"/></svg>