<?xml version="1.0" standalone="no"?>
<!DOCTYPE svg PUBLIC "-//W3C//DTD SVG 20010904//EN"
 "http://www.w3.org/TR/2001/REC-SVG-20010904/DTD/svg10.dtd">
<svg version="1.0" xmlns="http://www.w3.org/2000/svg"
 width="1280.000000pt" height="1280.000000pt" viewBox="0 0 1280.000000 1280.000000"
 preserveAspectRatio="xMidYMid meet">
<metadata>
Created by potrace 1.14, written by Peter Selinger 2001-2017
</metadata>
<g transform="translate(0.000000,1280.000000) scale(0.100000,-0.100000)"
fill="#000000" stroke="none">
<path d="M4889 12746 c-2 -2 -51 -7 -109 -11 -139 -9 -160 -11 -195 -18 -16
-3 -47 -9 -67 -12 -186 -26 -378 -119 -440 -212 -38 -57 -44 -90 -33 -159 18
-115 266 -314 445 -360 8 -2 45 -12 82 -23 140 -41 306 -45 663 -16 193 16
221 18 305 30 19 3 62 7 95 10 33 2 69 6 80 9 24 4 108 17 150 22 29 3 143 21
195 30 14 2 41 7 60 10 52 8 301 52 418 73 191 35 205 26 317 -204 95 -194
134 -288 163 -395 51 -185 65 -309 65 -545 -1 -179 -6 -259 -28 -415 -3 -19
-7 -53 -10 -75 -2 -22 -7 -51 -10 -65 -3 -14 -7 -38 -10 -55 -3 -16 -8 -41
-10 -55 -3 -14 -7 -34 -9 -45 -2 -11 -10 -40 -16 -65 -7 -25 -14 -55 -16 -67
-4 -33 -50 -182 -94 -304 -87 -242 -205 -436 -351 -579 -74 -73 -118 -110
-128 -110 -5 0 -11 -3 -13 -7 -10 -24 -307 -189 -352 -197 -6 -1 -20 -7 -31
-13 -11 -6 -51 -22 -90 -36 -38 -14 -87 -33 -107 -41 -21 -9 -38 -13 -38 -9 0
5 -4 4 -8 -2 -4 -5 -32 -18 -62 -29 -155 -52 -401 -156 -561 -236 -343 -171
-509 -370 -511 -612 -2 -187 41 -293 245 -596 61 -92 117 -176 123 -187 6 -11
43 -72 81 -135 80 -133 93 -159 138 -281 33 -90 33 -90 12 -98 -62 -23 -375
101 -555 219 -41 28 -78 50 -83 50 -4 0 -9 3 -11 8 -1 4 -37 34 -78 67 -112
89 -327 307 -408 415 -40 52 -79 104 -88 115 -42 54 -177 283 -231 390 -89
179 -176 392 -204 500 -4 17 -19 68 -33 115 -13 47 -27 96 -30 110 -31 137
-55 252 -59 285 -4 22 -8 49 -10 60 -3 11 -8 43 -11 70 -4 28 -9 61 -11 75 -2
14 -7 57 -10 95 -4 39 -8 84 -10 100 -25 247 -25 938 0 1185 2 19 6 69 10 110
3 41 8 89 10 105 7 70 16 142 20 165 2 14 6 48 10 75 3 28 7 61 10 75 3 14 8
43 11 65 3 22 9 63 14 90 5 28 12 66 15 85 4 19 11 55 16 80 6 25 12 56 14 70
7 41 14 79 42 205 14 66 27 127 28 135 2 8 4 15 5 15 1 0 3 11 6 25 13 76 97
336 145 447 21 51 39 102 39 113 0 24 -39 36 -68 21 -40 -21 -136 -271 -197
-511 -15 -58 -31 -116 -36 -130 -4 -14 -11 -41 -14 -60 -3 -19 -12 -60 -19
-90 -8 -30 -17 -73 -22 -95 -4 -22 -8 -44 -10 -50 -3 -14 -42 -233 -49 -275
-3 -19 -7 -46 -10 -60 -10 -51 -24 -151 -30 -211 -3 -24 -7 -60 -10 -79 -3
-19 -7 -66 -11 -105 -3 -38 -7 -81 -9 -95 -4 -23 -11 -99 -20 -229 -19 -254
-24 -608 -11 -826 4 -71 9 -157 11 -190 2 -33 5 -73 8 -90 3 -16 9 -61 13
-100 3 -38 8 -79 10 -90 2 -10 6 -37 9 -60 7 -51 30 -188 39 -230 46 -226 87
-384 137 -525 17 -47 32 -89 33 -95 1 -5 10 -28 20 -50 10 -22 19 -48 21 -58
5 -23 172 -362 195 -397 10 -14 51 -77 93 -141 42 -64 113 -163 159 -220 90
-115 323 -352 406 -414 28 -21 52 -43 52 -47 0 -4 5 -8 12 -8 6 0 35 -18 64
-40 29 -22 58 -40 64 -40 5 0 10 -4 10 -10 0 -5 4 -10 8 -10 5 0 48 -22 96
-49 117 -66 263 -123 429 -167 131 -35 137 -38 138 -63 0 -14 2 -33 4 -41 1
-8 5 -44 9 -80 3 -36 9 -92 13 -125 11 -94 5 -605 -7 -605 -3 0 -5 -24 -5 -52
-1 -50 -11 -212 -20 -323 -3 -27 -7 -81 -10 -120 -3 -38 -7 -95 -10 -125 -2
-30 -6 -84 -9 -118 -6 -81 -16 -187 -21 -232 -3 -19 -7 -73 -11 -120 -3 -47
-7 -101 -9 -120 -9 -89 -18 -328 -18 -455 0 -115 9 -350 13 -350 1 0 3 -16 5
-35 6 -47 18 -144 20 -150 0 -3 4 -27 9 -55 11 -76 62 -281 91 -370 66 -201
186 -390 345 -543 94 -91 277 -228 385 -288 60 -33 186 -100 224 -119 l44 -22
-34 -13 c-19 -7 -38 -14 -44 -16 -5 -1 -35 -11 -65 -22 -277 -97 -543 -174
-647 -188 -18 -2 -53 -8 -78 -14 -134 -30 -430 -32 -590 -4 -99 17 -305 95
-305 116 0 9 81 169 90 178 3 3 6 10 7 15 2 6 13 37 24 70 33 90 30 235 -5
330 -29 77 -53 112 -123 181 -125 123 -292 153 -416 74 -56 -35 -115 -122
-124 -182 -31 -201 45 -389 240 -593 47 -49 83 -93 79 -96 -4 -3 -34 -16 -67
-29 -33 -13 -64 -26 -70 -30 -5 -3 -30 -13 -55 -20 -25 -7 -49 -17 -55 -21 -8
-5 -66 -20 -175 -44 -3 0 -14 -4 -25 -8 -11 -3 -31 -8 -45 -11 -14 -2 -54 -11
-90 -20 -36 -8 -76 -17 -90 -20 -14 -2 -56 -12 -95 -21 -89 -21 -113 -26 -180
-39 -5 -1 -16 -5 -23 -9 -6 -5 -12 -6 -12 -3 0 2 -42 -7 -92 -21 -51 -13 -100
-26 -108 -28 -8 -2 -16 -4 -17 -5 -2 -2 -6 -3 -10 -4 -25 -6 -133 -51 -190
-80 -170 -85 -300 -225 -329 -355 -64 -283 132 -561 527 -749 229 -109 526
-195 779 -228 19 -2 51 -7 70 -10 66 -11 105 -14 230 -19 69 -3 127 -5 130 -6
3 -1 10 0 15 1 11 2 457 1 465 -1 3 -1 9 -1 13 0 4 1 112 3 240 5 128 3 242 7
255 10 12 3 54 8 92 11 38 3 78 8 88 10 11 2 43 6 73 10 30 3 65 8 79 10 14 2
45 7 70 10 25 3 59 9 75 11 17 3 41 7 55 9 28 4 68 11 150 25 30 6 69 12 85
15 17 3 50 10 75 15 25 5 59 12 75 14 17 2 30 5 30 6 0 1 9 3 20 5 33 4 87 15
130 26 22 5 53 12 69 14 15 2 38 7 50 11 11 4 30 8 41 10 24 4 50 10 93 23 18
5 34 10 37 11 3 0 10 2 17 5 18 6 92 24 100 25 4 0 28 9 53 20 25 11 45 17 45
15 0 -6 184 72 264 112 182 91 360 229 454 353 19 25 37 47 41 50 8 7 30 45
57 100 45 94 54 223 19 293 -8 17 -15 34 -15 39 0 18 -79 115 -136 167 -101
91 -314 219 -471 284 -21 9 -94 39 -163 67 -69 28 -139 58 -157 66 -17 7 -34
14 -38 14 -11 0 -155 70 -155 75 0 5 101 51 130 60 3 1 23 9 45 19 22 10 100
42 173 72 72 30 144 60 160 66 15 6 29 12 32 13 15 5 48 18 65 26 37 16 362
141 375 145 3 0 12 4 20 7 43 18 180 65 180 62 0 -2 17 3 38 12 109 46 555
162 687 179 22 3 51 7 64 10 81 17 363 24 471 11 314 -37 505 -143 645 -357
134 -205 182 -451 127 -650 -24 -87 -77 -197 -122 -253 -55 -68 -211 -215
-286 -269 -234 -167 -440 -231 -730 -226 l-152 2 -47 -31 -46 -30 57 -23 c50
-21 77 -24 193 -25 231 -3 393 32 589 127 145 71 246 144 381 278 160 159 240
300 280 495 10 49 8 270 -2 310 -34 128 -72 221 -124 303 -18 29 -33 54 -33
56 0 7 -63 78 -120 136 -111 113 -267 201 -415 236 -133 32 -174 37 -310 38
-134 1 -290 -8 -349 -20 -11 -2 -39 -7 -61 -10 -91 -13 -183 -32 -280 -55 -44
-11 -91 -22 -105 -25 -28 -5 -172 -48 -240 -71 -25 -8 -52 -16 -60 -18 -46
-10 -1013 -388 -1215 -474 -80 -35 -103 -41 -175 -48 -51 -5 -61 -2 -145 43
-50 26 -103 54 -120 62 -16 9 -32 18 -35 21 -3 3 -27 17 -55 31 -61 31 -238
149 -285 190 -104 92 -198 191 -227 240 -9 17 -21 30 -25 30 -4 0 -8 5 -8 11
0 6 -11 25 -24 42 -54 72 -154 304 -172 400 -2 12 -6 33 -10 47 -12 52 -23
106 -29 150 -9 62 -12 89 -19 135 -7 41 -13 112 -21 220 -5 70 -6 435 -1 515
8 121 17 237 22 270 2 19 6 64 9 100 6 75 14 160 20 210 2 19 6 62 9 95 4 33
9 85 11 115 3 30 8 71 10 90 2 19 7 64 10 100 3 36 7 90 10 120 37 409 36 804
-4 1045 -3 22 -6 54 -6 70 0 28 2 30 40 31 56 2 213 13 255 19 19 3 53 7 75
10 22 2 51 7 65 10 14 3 39 8 55 11 44 8 202 63 259 90 28 13 56 24 63 24 7 0
13 5 13 10 0 6 5 10 12 10 15 0 221 139 273 184 91 78 214 207 275 286 19 25
37 47 41 50 7 6 149 210 149 214 0 2 18 34 40 70 38 63 170 319 170 330 0 3
13 34 29 68 26 58 138 354 146 388 2 8 18 60 35 115 43 139 126 470 145 580 2
11 6 34 9 50 3 17 8 44 11 60 3 17 8 41 11 55 3 14 6 32 6 40 0 8 4 35 10 60
5 24 11 65 13 90 3 25 7 61 10 80 3 19 8 55 10 80 3 25 8 65 11 90 24 182 46
539 46 775 0 200 -11 431 -27 560 -3 22 -8 60 -10 85 -7 68 -13 111 -30 205
-3 17 -8 42 -10 56 -15 101 -95 379 -117 407 -6 6 -8 12 -4 12 7 0 -108 224
-124 240 -3 3 -17 21 -32 40 -108 141 -264 240 -423 267 -59 10 -73 13 -106
22 -19 6 -44 19 -55 29 -50 46 -167 134 -225 169 -64 39 -175 96 -194 99 -5 1
-35 12 -65 24 -30 12 -62 23 -70 25 -8 2 -42 10 -75 19 -33 9 -69 18 -80 20
-11 2 -52 11 -90 19 -132 29 -216 44 -290 53 -27 3 -57 8 -65 10 -8 3 -48 7
-90 10 -42 2 -87 7 -101 10 -27 6 -505 15 -510 10z m461 -110 c58 -3 114 -8
125 -10 11 -2 49 -7 85 -11 36 -4 74 -9 85 -11 11 -2 40 -7 65 -10 25 -3 53
-8 62 -10 10 -3 29 -7 43 -10 14 -2 35 -6 48 -9 12 -2 36 -7 52 -10 17 -3 44
-10 62 -16 17 -5 44 -12 58 -15 62 -11 310 -110 420 -167 22 -12 43 -21 46
-22 3 0 25 -16 48 -36 67 -59 55 -66 -159 -95 -35 -5 -70 -11 -105 -18 -16 -3
-46 -8 -65 -11 -19 -3 -46 -8 -60 -11 -14 -3 -32 -6 -40 -6 -8 0 -37 -5 -65
-10 -27 -5 -66 -11 -85 -14 -35 -5 -111 -17 -120 -19 -3 -1 -30 -5 -60 -10
-30 -4 -66 -10 -80 -12 -14 -2 -45 -6 -70 -8 -25 -2 -45 -5 -45 -5 0 -4 -109
-22 -215 -35 -25 -3 -61 -8 -80 -10 -180 -23 -564 -22 -602 1 -5 3 -21 7 -36
9 -30 5 -62 11 -107 22 -41 9 -38 9 -100 33 -90 34 -164 80 -219 134 -70 69
-91 104 -88 148 4 45 36 83 101 122 130 76 310 118 566 132 60 3 111 7 112 8
4 3 328 -3 423 -8z m1643 -545 c101 -35 200 -117 275 -228 44 -64 102 -174
102 -191 0 -6 3 -12 8 -14 15 -6 92 -255 107 -343 1 -11 10 -58 19 -105 10
-47 19 -103 22 -125 3 -22 7 -49 9 -60 2 -11 7 -45 10 -75 3 -30 8 -73 10 -95
24 -205 24 -730 0 -1009 -15 -171 -22 -239 -29 -298 -3 -27 -8 -69 -11 -95 -4
-27 -8 -59 -10 -73 -5 -36 -16 -107 -21 -133 -2 -12 -6 -40 -9 -61 -3 -22 -15
-85 -26 -140 -11 -56 -23 -114 -26 -131 -2 -16 -18 -84 -34 -150 -16 -66 -31
-127 -33 -135 -16 -63 -51 -186 -63 -220 -4 -8 -7 -21 -9 -29 -5 -24 -17 -65
-26 -91 -3 -8 -16 -44 -29 -80 -139 -398 -306 -713 -518 -977 -107 -132 -180
-207 -302 -308 -40 -33 -148 -105 -158 -105 -5 0 -11 -3 -13 -8 -8 -18 -308
-151 -308 -136 0 2 -8 0 -18 -5 -20 -11 -150 -39 -214 -46 -45 -5 -227 -6
-288 -1 -33 2 -35 5 -62 82 -52 147 -118 299 -159 364 -9 14 -42 68 -74 120
-33 52 -61 97 -64 100 -4 3 -33 46 -66 95 -33 50 -62 92 -65 95 -15 12 -102
161 -129 220 -46 98 -62 172 -56 265 6 122 44 204 133 293 56 56 108 102 116
102 2 0 30 17 62 39 33 21 97 58 144 81 47 22 93 46 103 51 9 5 52 23 95 40
42 17 91 37 107 44 17 7 53 21 80 31 28 9 54 21 59 26 6 4 19 8 31 8 12 0 25
4 31 9 5 5 61 27 124 50 63 23 122 44 130 48 8 3 17 7 20 7 12 3 131 52 190
80 36 16 68 29 73 28 4 -1 7 2 7 8 0 5 6 10 13 10 17 0 208 127 257 170 219
194 362 403 459 669 33 90 104 328 104 349 0 6 4 12 9 12 5 0 7 3 4 8 -2 4 2
31 9 59 8 29 16 65 19 80 2 15 9 53 15 83 6 30 13 71 16 90 3 19 7 46 10 60 2
14 7 48 10 75 3 28 7 66 10 85 15 110 21 386 11 485 -2 22 -7 67 -10 100 -4
33 -9 72 -12 85 -3 14 -7 41 -10 60 -3 19 -14 71 -25 115 -12 44 -22 85 -24
90 -5 22 -112 310 -130 350 -18 41 -65 158 -65 162 0 8 31 2 83 -16z m-2612
-9414 c27 -5 103 -54 129 -84 80 -88 110 -172 106 -300 -1 -58 -7 -97 -15
-107 -7 -9 -10 -16 -6 -16 4 0 3 -6 -3 -12 -6 -7 -11 -16 -11 -21 -3 -34 -105
-157 -131 -157 -35 0 -157 116 -221 210 -54 79 -101 213 -101 290 -1 61 26
133 60 163 44 40 107 51 193 34z m2349 -792 c107 -43 202 -81 210 -85 15 -8
23 -11 120 -50 91 -37 244 -111 263 -128 9 -8 17 -12 17 -7 0 4 7 1 16 -6 9
-7 24 -18 34 -24 48 -28 141 -99 197 -149 103 -94 138 -197 102 -301 -20 -60
-67 -145 -80 -145 -5 0 -9 -5 -9 -10 0 -12 -45 -64 -105 -122 -43 -42 -179
-148 -190 -148 -4 0 -18 -9 -32 -20 -14 -11 -29 -17 -34 -14 -5 3 -9 2 -9 -3
0 -15 -284 -148 -340 -158 -3 -1 -43 -13 -90 -28 -47 -15 -95 -29 -108 -32
-12 -2 -26 -6 -30 -9 -5 -3 -22 -8 -38 -10 -16 -3 -38 -8 -49 -10 -79 -18
-265 -57 -290 -61 -16 -3 -41 -8 -55 -10 -14 -3 -36 -7 -50 -10 -14 -3 -36 -7
-50 -10 -14 -3 -40 -7 -58 -10 -18 -2 -45 -6 -60 -10 -44 -9 -74 -14 -117 -20
-22 -3 -62 -10 -90 -15 -27 -5 -72 -12 -100 -15 -27 -3 -63 -8 -80 -11 -16 -3
-50 -7 -75 -9 -25 -2 -45 -4 -45 -5 0 -1 -16 -3 -36 -5 -19 -1 -62 -6 -95 -10
-222 -25 -301 -28 -664 -29 -302 -1 -435 4 -570 19 -73 9 -196 25 -215 28 -11
3 -42 7 -70 11 -64 9 -374 85 -398 98 -10 5 -28 11 -40 13 -12 3 -31 9 -42 14
-11 5 -60 26 -110 47 -49 21 -103 47 -120 58 -16 12 -31 19 -32 16 -1 -3 -11
3 -23 12 -11 10 -20 15 -20 13 0 -15 -133 87 -190 145 -71 73 -76 79 -120 161
-126 240 10 464 361 596 88 33 301 90 367 99 19 2 38 6 42 9 4 3 27 7 50 10
24 3 46 8 50 10 4 3 25 7 46 11 22 3 68 13 104 21 36 8 74 17 85 19 42 8 284
84 330 104 11 5 83 29 160 55 l140 47 70 -33 c39 -18 72 -33 75 -34 3 -1 14
-5 25 -9 36 -14 49 -18 125 -37 41 -11 95 -22 120 -25 25 -3 70 -9 100 -13
103 -13 317 -2 475 24 56 9 253 53 295 66 19 5 42 12 50 14 77 17 268 79 435
140 161 59 180 64 230 61 22 -2 128 -38 235 -81z"/>
</g>
</svg>
